# xmcd
#
# Track frame offsets: 
#        150
#        23357
#        40745
#        57455
#
# Disc length: 1073 seconds
#
# Revision: 5
# Processed by: cddbd v1.5.2PL0 Copyright (c) Steve Scherf et al.
# Submitted via: ExactAudioCopy v1.0b3
#
DISCID=26042f04
DTITLE=古謝美佐子 - 童神
DYEAR=1900
DGENRE=民族音楽 (日本)
TTITLE0=童神(天の子守唄)
TTITLE1=美童あかばなー
TTITLE2=童神(アカペラ子守唄バージョン)
TTITLE3=童神(カラオケ三線バージョン)
EXTD=
EXTT0=
EXTT1=
EXTT2=
EXTT3=
PLAYORDER=
